<svg width="1200" height="900" viewBox="0 0 1200 900" fill="none" xmlns="http://www.w3.org/2000/svg">
  <rect width="1200" height="900" rx="48" fill="#EFF4F8"/>
  <circle cx="1038" cy="160" r="184" fill="#F06449" fill-opacity="0.16"/>
  <circle cx="174" cy="724" r="196" fill="#1B8F8A" fill-opacity="0.16"/>
  <rect x="114" y="134" width="972" height="632" rx="40" fill="#111827"/>
  <rect x="170" y="192" width="398" height="208" rx="28" fill="#FFF7F2"/>
  <rect x="612" y="192" width="304" height="208" rx="28" fill="#DDF5F3"/>
  <rect x="170" y="446" width="746" height="262" rx="32" fill="#F6F8FC"/>
  <path d="M568 296H612" stroke="#F06449" stroke-width="18" stroke-linecap="round"/>
  <path d="M372 400V446" stroke="#F06449" stroke-width="18" stroke-linecap="round"/>
  <path d="M764 400V446" stroke="#1B8F8A" stroke-width="18" stroke-linecap="round"/>
  <circle cx="568" cy="296" r="16" fill="#F06449"/>
  <circle cx="612" cy="296" r="16" fill="#F06449"/>
  <circle cx="372" cy="446" r="16" fill="#F06449"/>
  <circle cx="764" cy="446" r="16" fill="#1B8F8A"/>
  <rect x="226" y="248" width="124" height="18" rx="9" fill="#111827"/>
  <rect x="226" y="286" width="220" height="14" rx="7" fill="#817167"/>
  <rect x="226" y="330" width="276" height="18" rx="9" fill="#F5C35A"/>
  <rect x="666" y="248" width="120" height="18" rx="9" fill="#111827"/>
  <rect x="666" y="286" width="168" height="14" rx="7" fill="#567B77"/>
  <rect x="666" y="330" width="190" height="18" rx="9" fill="#1B8F8A"/>
  <rect x="224" y="506" width="188" height="150" rx="22" fill="#FFFFFF"/>
  <rect x="448" y="506" width="188" height="150" rx="22" fill="#FFFFFF"/>
  <rect x="672" y="506" width="188" height="150" rx="22" fill="#FFFFFF"/>
  <rect x="252" y="542" width="92" height="16" rx="8" fill="#111827"/>
  <rect x="476" y="542" width="92" height="16" rx="8" fill="#111827"/>
  <rect x="700" y="542" width="92" height="16" rx="8" fill="#111827"/>
  <rect x="252" y="578" width="122" height="12" rx="6" fill="#7A8596"/>
  <rect x="476" y="578" width="122" height="12" rx="6" fill="#7A8596"/>
  <rect x="700" y="578" width="122" height="12" rx="6" fill="#7A8596"/>
  <rect x="936" y="506" width="88" height="202" rx="22" fill="#FFEEE8"/>
  <rect x="958" y="538" width="42" height="108" rx="20" fill="#F06449"/>
</svg>
