<svg width="1200" height="900" viewBox="0 0 1200 900" fill="none" xmlns="http://www.w3.org/2000/svg">
  <rect width="1200" height="900" rx="48" fill="#FFF8F3"/>
  <circle cx="198" cy="162" r="168" fill="#F06449" fill-opacity="0.18"/>
  <circle cx="1018" cy="744" r="190" fill="#1B8F8A" fill-opacity="0.16"/>
  <rect x="96" y="104" width="1008" height="692" rx="36" fill="#FFFFFF"/>
  <rect x="96" y="104" width="1008" height="92" rx="36" fill="#111827"/>
  <circle cx="156" cy="150" r="11" fill="#F06449"/>
  <circle cx="192" cy="150" r="11" fill="#F5C35A"/>
  <circle cx="228" cy="150" r="11" fill="#1B8F8A"/>
  <rect x="142" y="244" width="236" height="492" rx="26" fill="#F6F8FC"/>
  <rect x="406" y="244" width="316" height="224" rx="26" fill="#111827"/>
  <rect x="752" y="244" width="206" height="224" rx="26" fill="#FFEEE8"/>
  <rect x="406" y="494" width="552" height="242" rx="26" fill="#F6F8FC"/>
  <rect x="186" y="296" width="144" height="18" rx="9" fill="#111827"/>
  <rect x="186" y="334" width="110" height="14" rx="7" fill="#728097"/>
  <rect x="186" y="396" width="152" height="72" rx="18" fill="#FFFFFF"/>
  <rect x="186" y="490" width="152" height="72" rx="18" fill="#FFFFFF"/>
  <rect x="186" y="584" width="152" height="72" rx="18" fill="#FFFFFF"/>
  <path d="M456 412C456 412 520 332 572 332C624 332 670 396 722 396" stroke="#F06449" stroke-width="18" stroke-linecap="round"/>
  <circle cx="456" cy="412" r="18" fill="#FFDED3"/>
  <circle cx="572" cy="332" r="18" fill="#1B8F8A"/>
  <circle cx="722" cy="396" r="18" fill="#F5C35A"/>
  <rect x="786" y="286" width="138" height="20" rx="10" fill="#111827"/>
  <rect x="786" y="326" width="106" height="14" rx="7" fill="#896F66"/>
  <rect x="786" y="372" width="104" height="56" rx="18" fill="#FFFFFF"/>
  <rect x="446" y="544" width="140" height="136" rx="22" fill="#FFFFFF"/>
  <rect x="612" y="544" width="140" height="136" rx="22" fill="#FFFFFF"/>
  <rect x="778" y="544" width="140" height="136" rx="22" fill="#FFFFFF"/>
  <rect x="474" y="578" width="84" height="16" rx="8" fill="#111827"/>
  <rect x="640" y="578" width="84" height="16" rx="8" fill="#111827"/>
  <rect x="806" y="578" width="84" height="16" rx="8" fill="#111827"/>
  <rect x="474" y="614" width="62" height="12" rx="6" fill="#7A8596"/>
  <rect x="640" y="614" width="72" height="12" rx="6" fill="#7A8596"/>
  <rect x="806" y="614" width="58" height="12" rx="6" fill="#7A8596"/>
</svg>
