<svg width="1200" height="900" viewBox="0 0 1200 900" fill="none" xmlns="http://www.w3.org/2000/svg">
  <rect width="1200" height="900" rx="48" fill="#111827"/>
  <circle cx="171" cy="170" r="180" fill="#F06449" fill-opacity="0.18"/>
  <circle cx="980" cy="190" r="210" fill="#1B8F8A" fill-opacity="0.18"/>
  <rect x="118" y="126" width="964" height="648" rx="36" fill="#1B2538"/>
  <rect x="176" y="192" width="848" height="484" rx="28" fill="#F5F7FB"/>
  <rect x="228" y="236" width="310" height="44" rx="22" fill="#E5EAF2"/>
  <rect x="228" y="318" width="470" height="204" rx="24" fill="#111827"/>
  <rect x="732" y="318" width="240" height="94" rx="22" fill="#FFDED3"/>
  <rect x="732" y="428" width="240" height="94" rx="22" fill="#DBF4F3"/>
  <rect x="228" y="550" width="744" height="76" rx="22" fill="#EEF1F6"/>
  <rect x="272" y="366" width="224" height="20" rx="10" fill="#F06449"/>
  <rect x="272" y="404" width="176" height="16" rx="8" fill="#F9B9A7"/>
  <rect x="272" y="438" width="140" height="16" rx="8" fill="#F9B9A7"/>
  <rect x="272" y="472" width="188" height="16" rx="8" fill="#F9B9A7"/>
  <rect x="774" y="352" width="92" height="18" rx="9" fill="#111827"/>
  <rect x="774" y="384" width="142" height="14" rx="7" fill="#75695F"/>
  <rect x="774" y="462" width="96" height="18" rx="9" fill="#111827"/>
  <rect x="774" y="494" width="130" height="14" rx="7" fill="#688481"/>
  <path d="M830 673C830 648.699 849.699 629 874 629H1048C1072.3 629 1092 648.699 1092 673V741C1092 765.301 1072.3 785 1048 785H874C849.699 785 830 765.301 830 741V673Z" fill="#111827"/>
  <rect x="862" y="661" width="198" height="18" rx="9" fill="#FFDED3"/>
  <rect x="862" y="697" width="160" height="16" rx="8" fill="#F6B3A1"/>
  <rect x="54" y="598" width="244" height="172" rx="30" fill="#FFF5F0"/>
  <rect x="88" y="634" width="126" height="18" rx="9" fill="#111827"/>
  <rect x="88" y="670" width="164" height="14" rx="7" fill="#7A6B62"/>
  <rect x="88" y="708" width="120" height="14" rx="7" fill="#7A6B62"/>
  <circle cx="1010" cy="110" r="14" fill="#F06449"/>
  <circle cx="1052" cy="110" r="14" fill="#1B8F8A"/>
  <circle cx="1094" cy="110" r="14" fill="#F4C95D"/>
</svg>
